<svg width="281" height="261" viewBox="0 0 281 261" fill="none" xmlns="http://www.w3.org/2000/svg">
<path d="M117.921 22.1399C120.468 22.1399 122.533 20.075 122.533 17.5278C122.533 14.9806 120.468 12.9156 117.921 12.9156C115.374 12.9156 113.309 14.9806 113.309 17.5278C113.309 20.075 115.374 22.1399 117.921 22.1399Z" fill="white"/>
<path d="M249.588 260.121L30.5032 260.195C25.1514 260.216 19.8888 258.824 15.2481 256.158C10.6073 253.492 6.75315 249.647 4.07557 245.013C1.39799 240.379 -0.00795269 235.12 3.38369e-05 229.768C0.00802036 224.415 1.42965 219.16 4.12105 214.534L113.594 15.2331C116.264 10.6035 120.107 6.75853 124.734 4.08455C129.362 1.41058 134.611 0.00187365 139.956 1.86774e-06C145.3 -0.00186991 150.551 1.40316 155.18 4.07389C159.81 6.74462 163.655 10.5869 166.329 15.2147L275.956 214.461C278.624 219.089 280.027 224.338 280.026 229.68C280.024 235.022 278.616 240.27 275.945 244.896C273.273 249.522 269.432 253.364 264.806 256.036C260.18 258.708 254.932 260.115 249.59 260.117L249.588 260.121ZM2.75293 229.753C2.75293 234.512 26.9278 224.256 29.4321 228.591C34.4421 237.262 20.4883 257.449 30.5017 257.446C30.5017 257.446 268.565 252.186 273.569 243.512C276.026 239.309 277.321 234.528 277.319 229.66C277.317 224.792 276.019 220.012 273.558 215.811L163.934 16.5651C161.522 12.3421 158.03 8.8368 153.816 6.40903C149.603 3.98126 144.819 2.71843 139.956 2.75013C129.947 2.75013 2.75292 224.997 2.75219 229.757L2.75293 229.753Z" fill="#F8191A"/>
<path d="M145.645 234.397C187.77 234.397 221.918 200.247 221.918 158.119C221.918 115.992 187.77 81.8414 145.645 81.8414C103.52 81.8414 69.3713 115.992 69.3713 158.119C69.3713 200.247 103.52 234.397 145.645 234.397Z" fill="#F8191A"/>
<path d="M139.61 177.704L138.81 110.276H152.416L151.549 177.704H139.61ZM145.68 205.965C144.494 205.984 143.318 205.761 142.222 205.308C141.127 204.854 140.136 204.182 139.31 203.331C138.476 202.5 137.813 201.513 137.361 200.425C136.909 199.338 136.677 198.172 136.677 196.994C136.677 195.817 136.909 194.651 137.361 193.563C137.813 192.476 138.476 191.489 139.31 190.658C140.136 189.807 141.127 189.134 142.222 188.681C143.318 188.228 144.494 188.004 145.68 188.023C146.86 188.002 148.033 188.225 149.123 188.679C150.213 189.132 151.198 189.806 152.016 190.658C152.858 191.488 153.523 192.481 153.97 193.576C154.417 194.671 154.637 195.845 154.617 197.028C154.633 198.2 154.41 199.363 153.963 200.447C153.516 201.53 152.854 202.512 152.016 203.332C151.198 204.184 150.213 204.857 149.123 205.311C148.033 205.764 146.86 205.987 145.68 205.966V205.965Z" fill="white"/>
</svg>
